<?xml version="1.0" encoding="UTF-8"?>
<svg version="1.1" xmlns="http://www.w3.org/2000/svg" width="340" height="331">
<path d="M0 0 C1.97781913 -0.0013579 3.95563801 -0.00314 5.93345642 -0.00531006 C11.26858437 -0.00984027 16.60369282 -0.00811253 21.93882108 -0.00493097 C27.55304084 -0.00238197 33.16725904 -0.00475218 38.78147888 -0.00631714 C48.21369727 -0.0081325 57.64590781 -0.00575025 67.078125 -0.00097656 C77.93206113 0.00445377 88.78597843 0.00270979 99.6399141 -0.00280297 C109.00265683 -0.00736542 118.36539395 -0.00796908 127.72813743 -0.0053643 C133.30041082 -0.00381724 138.8726754 -0.00356388 144.4449482 -0.00690079 C149.69406943 -0.00982489 154.94316683 -0.00772195 160.19228554 -0.00200653 C162.10080679 -0.00070248 164.00933011 -0.00103203 165.91785049 -0.0032692 C175.73668275 -0.01370266 185.53236029 0.12035315 195.34239197 0.55935669 C196.19914727 0.59599769 197.05590257 0.63263868 197.93862015 0.67039001 C215.35067537 1.53608164 229.36815807 7.02578983 241.57983398 19.62939453 C255.65461713 35.86765902 256.47037941 54.45135108 256.40551758 74.85961914 C256.40959001 77.02451338 256.41493563 79.18940554 256.42144775 81.35429382 C256.43504808 87.19731328 256.42985268 93.04017266 256.4203105 98.88319468 C256.41267502 105.02073114 256.41977035 111.15825459 256.42446899 117.29579163 C256.42991567 127.60062094 256.42276394 137.9053856 256.40844727 148.21020508 C256.39212725 160.09359038 256.39740903 171.97682118 256.41392648 183.86020273 C256.42757756 194.09419378 256.42944321 204.32813854 256.42161047 214.56213576 C256.41695328 220.66073705 256.41625495 226.75926594 256.42621994 232.85786247 C256.43494002 238.59456993 256.4287762 244.33107988 256.41153717 250.06776619 C256.40759894 252.1626363 256.40866018 254.25752327 256.41532516 256.35238647 C256.47369494 276.57625765 254.88651118 296.20797632 241.01733398 312.12939453 C239.90358398 313.64533203 239.90358398 313.64533203 238.76733398 315.19189453 C238.18983398 315.83126953 237.61233398 316.47064453 237.01733398 317.12939453 C236.02733398 317.12939453 235.03733398 317.12939453 234.01733398 317.12939453 C233.68733398 318.11939453 233.35733398 319.10939453 233.01733398 320.12939453 C219.52988808 328.59512377 204.9337494 331.30150258 189.2097168 331.24964905 C187.77226215 331.25093069 187.77226215 331.25093069 186.30576801 331.25223821 C183.11064568 331.2538788 179.91557644 331.24839499 176.72045898 331.24291992 C174.42374167 331.24263772 172.12702427 331.24279643 169.83030701 331.24336243 C163.60576472 331.2436491 157.38124175 331.23777329 151.15670395 331.23078847 C144.64776457 331.22453337 138.13882474 331.22394942 131.62988281 331.22276306 C120.70841122 331.22000902 109.78694674 331.21376458 98.86547852 331.20483398 C87.6190596 331.19564726 76.37264261 331.1885726 65.1262207 331.18432617 C64.08541843 331.18393209 64.08541843 331.18393209 63.02358985 331.18353004 C59.54246633 331.18222495 56.06134281 331.18096126 52.58021927 331.17971814 C23.7259195 331.16936069 -5.12837309 331.151681 -33.98266602 331.12939453 C-33.98266602 330.46939453 -33.98266602 329.80939453 -33.98266602 329.12939453 C-35.22016602 329.06751953 -36.45766602 329.00564453 -37.73266602 328.94189453 C-43.97324945 328.27043935 -49.30966533 325.67273702 -54.98266602 323.12939453 C-55.8734082 322.79552734 -56.76415039 322.46166016 -57.68188477 322.11767578 C-60.85212412 320.75592611 -62.64981979 318.64169046 -64.98266602 316.12939453 C-65.72516602 315.42814453 -66.46766602 314.72689453 -67.23266602 314.00439453 C-68.98266602 312.12939453 -68.98266602 312.12939453 -69.98266602 309.12939453 C-70.82829102 308.32501953 -71.67391602 307.52064453 -72.54516602 306.69189453 C-74.98266602 304.12939453 -74.98266602 304.12939453 -74.98266602 300.12939453 C-75.64266602 300.12939453 -76.30266602 300.12939453 -76.98266602 300.12939453 C-77.79187365 298.38743612 -78.57883357 296.63514398 -79.35766602 294.87939453 C-79.79852539 293.90486328 -80.23938477 292.93033203 -80.69360352 291.92626953 C-85.14044235 279.97258524 -84.2737741 266.85457785 -84.25732422 254.3190918 C-84.2616773 252.12169218 -84.26686242 249.92429407 -84.27281189 247.72689819 C-84.28614781 241.78682548 -84.28678668 235.8468166 -84.28424859 229.90673184 C-84.28317538 224.93669342 -84.28807109 219.96666772 -84.29285401 214.99663204 C-84.30456221 202.59764585 -84.30373479 190.198691 -84.2972972 177.79970293 C-84.2921284 167.05861174 -84.30338727 156.31761124 -84.32239542 145.57653797 C-84.34181603 134.51665459 -84.34973178 123.45681613 -84.34627217 112.39691585 C-84.34446376 106.19997324 -84.34705153 100.00311374 -84.36098671 93.80618477 C-84.37360458 87.97759482 -84.37158349 82.14918592 -84.35857582 76.3205986 C-84.35621926 74.18940989 -84.35891148 72.05820828 -84.36719894 69.92703438 C-84.4198559 55.32616466 -84.41069159 39.7714329 -75.98266602 27.12939453 C-75.32266602 27.12939453 -74.66266602 27.12939453 -73.98266602 27.12939453 C-73.87438477 26.54673828 -73.76610352 25.96408203 -73.65454102 25.36376953 C-71.26107142 17.40409158 -62.9832419 12.81486842 -56.26000977 8.88720703 C-38.5219925 -0.62662821 -19.60175825 -0.02279014 0 0 Z " fill="#D93641" transform="translate(83.982666015625,-0.12939453125)"/>
<path d="M0 0 C1.0209375 0.08314453 1.0209375 0.08314453 2.0625 0.16796875 C4 0.8125 4 0.8125 7 4.8125 C7 8.1125 7 11.4125 7 14.8125 C20.2 14.8125 33.4 14.8125 47 14.8125 C47 11.1825 47 7.5525 47 3.8125 C50 0.8125 50 0.8125 52.59375 0.4140625 C53.5528125 0.42179687 54.511875 0.42953125 55.5 0.4375 C56.4590625 0.42976563 57.418125 0.42203125 58.40625 0.4140625 C61 0.8125 61 0.8125 62.83203125 1.98046875 C64.47432785 4.55651259 64.29427911 6.47459195 64.1875 9.5 C64.14689453 10.99080078 64.14689453 10.99080078 64.10546875 12.51171875 C64.07066406 13.27097656 64.03585937 14.03023437 64 14.8125 C65.010625 14.750625 66.02125 14.68875 67.0625 14.625 C72.73474991 14.89510714 77.02518651 16.51621609 81.17163086 20.41967773 C85.92457286 26.19091556 84.79654723 33.96357102 84.69140625 41.03515625 C84.68782495 42.62503218 84.68647261 44.21491454 84.6872406 45.80479431 C84.6825622 49.12783884 84.65782219 52.44990632 84.61743164 55.77270508 C84.56642052 60.02190123 84.55499074 64.27002752 84.55726719 68.51949406 C84.55644966 71.79933291 84.53996824 75.07894013 84.51826286 78.35870171 C84.50874988 79.92510669 84.50281168 81.49153777 84.50058174 83.05797005 C84.4940421 85.25011607 84.46771127 87.44115146 84.43579102 89.63305664 C84.42435562 90.8776918 84.41292023 92.12232697 84.40113831 93.40467834 C83.76632891 98.7976243 81.7003042 102.70764724 77.5 106.125 C76.61828125 106.86169922 76.61828125 106.86169922 75.71875 107.61328125 C71.69312365 110.42207054 67.31098098 109.97389591 62.61645508 109.98950195 C61.3329718 109.99935875 61.3329718 109.99935875 60.02355957 110.00941467 C57.18888256 110.029141 54.35425857 110.04080992 51.51953125 110.05078125 C50.55036963 110.05485678 49.581208 110.0589323 48.58267784 110.06313133 C43.4511982 110.08399105 38.31974529 110.09829218 33.18823242 110.10766602 C27.89666194 110.11871928 22.60551327 110.15310707 17.31409168 110.19283772 C13.23818702 110.21902828 9.16238239 110.22736012 5.08640099 110.23094749 C3.13643234 110.23580855 1.18646802 110.24740879 -0.7634182 110.26598549 C-3.49910909 110.29042475 -6.23371498 110.28940303 -8.96948242 110.2824707 C-9.76822281 110.29528076 -10.5669632 110.30809082 -11.38990784 110.32128906 C-17.01696244 110.26957215 -21.28977096 108.93860121 -26 105.8125 C-30.52343327 101.05709579 -31.125711 97.50734172 -31.19287109 91.08129883 C-31.20104858 90.40120758 -31.20922607 89.72111633 -31.21765137 89.02041626 C-31.24245725 86.77013008 -31.2590116 84.51990693 -31.2734375 82.26953125 C-31.27876118 81.49895575 -31.28408485 80.72838024 -31.28956985 79.93445396 C-31.31628439 75.85336681 -31.33566208 71.77231002 -31.35009766 67.69116211 C-31.36341936 64.32239523 -31.39124059 60.95423661 -31.43212891 57.58569336 C-31.48159223 53.51024954 -31.5062355 49.435356 -31.51332474 45.35962486 C-31.52001482 43.81154052 -31.53517829 42.26346737 -31.55921555 40.71555519 C-31.77248961 26.14681591 -31.77248961 26.14681591 -27.44766235 20.23686218 C-23.44148425 16.29516364 -19.07737635 14.60198585 -13.5 14.5625 C-11.7675 14.68625 -11.7675 14.68625 -10 14.8125 C-10.05220703 13.67361328 -10.05220703 13.67361328 -10.10546875 12.51171875 C-10.13253906 11.51785156 -10.15960938 10.52398437 -10.1875 9.5 C-10.22230469 8.51386719 -10.25710937 7.52773438 -10.29296875 6.51171875 C-10 3.8125 -10 3.8125 -8.67578125 2.01953125 C-5.79543671 -0.05512251 -3.41736118 -0.34303057 0 0 Z " fill="#EFE9E8" transform="translate(211,50.1875)"/>
<path d="M0 0 C1.19570114 -0.0098568 1.19570114 -0.0098568 2.41555786 -0.01991272 C5.05544125 -0.0396331 7.69526772 -0.05130685 10.33520508 -0.0612793 C11.23817133 -0.06535482 12.14113758 -0.06943035 13.07146645 -0.07362938 C17.85281775 -0.09448692 22.63414039 -0.10878878 27.41552734 -0.11816406 C32.34390701 -0.1292147 37.27183347 -0.1635999 42.20005322 -0.20333576 C45.99801955 -0.22953797 49.79587862 -0.2378592 53.59392738 -0.24144554 C55.409926 -0.24630389 57.22592007 -0.2578964 59.04183006 -0.27648354 C61.59074687 -0.30094724 64.13850066 -0.29989685 66.6875 -0.29296875 C67.80145393 -0.31218384 67.80145393 -0.31218384 68.93791199 -0.33178711 C75.29464867 -0.26918041 80.65912643 1.69744739 85.22583008 6.2121582 C85.68086914 6.88118164 86.1359082 7.55020508 86.60473633 8.23950195 C87.07782227 8.91110352 87.5509082 9.58270508 88.03833008 10.2746582 C89.98646782 13.55750624 90.30777828 16.30692531 90.37597656 20.04052734 C90.39526718 21.02908218 90.4145578 22.01763702 90.43443298 23.03614807 C90.49241255 27.57191153 90.5414886 32.10751869 90.57226562 36.64355469 C90.59380093 39.02846801 90.62784995 41.41330326 90.67480469 43.79785156 C90.74210425 47.24881045 90.7693188 50.69813388 90.78833008 54.1496582 C90.81616074 55.20419693 90.84399139 56.25873566 90.87266541 57.3452301 C90.85198466 64.87823827 89.08080949 70.36017352 84.16723633 76.17700195 C80.33102264 78.99849801 77.00610738 81.17700195 72.16723633 81.17700195 C72.21364258 82.3577832 72.26004883 83.53856445 72.30786133 84.75512695 C72.34538582 86.31239329 72.38178526 87.86968703 72.41723633 89.42700195 C72.45075195 90.20430664 72.48426758 90.98161133 72.51879883 91.7824707 C72.58203389 95.4817221 72.56717095 97.55615107 70.52661133 100.72387695 C67.44998688 102.61875161 65.74143326 102.57299411 62.16723633 102.17700195 C59.77368164 100.44873047 59.77368164 100.44873047 57.49536133 98.0559082 C56.66649414 97.20319336 55.83762695 96.35047852 54.98364258 95.47192383 C54.13672852 94.57022461 53.28981445 93.66852539 52.41723633 92.73950195 C50.7159103 90.968241 49.01287195 89.19862266 47.30786133 87.4309082 C46.56052734 86.64014893 45.81319336 85.84938965 45.04321289 85.03466797 C42.21108341 82.23018161 40.53144992 82.05149741 36.66088867 82.03515625 C35.72586517 82.0281218 34.79084167 82.02108734 33.82748413 82.01383972 C32.81296173 82.00967545 31.79843933 82.00551117 30.75317383 82.0012207 C28.60863288 81.97801148 26.46410161 81.9538937 24.31958008 81.92895508 C20.93588902 81.89391758 17.55255109 81.86454301 14.16870117 81.85107422 C10.90475431 81.83553617 7.64184452 81.79527526 4.37817383 81.7512207 C3.37579681 81.75312912 2.3734198 81.75503754 1.34066772 81.75700378 C-5.8822101 81.6321401 -11.63525416 80.33810718 -16.89135742 75.1418457 C-17.57391602 74.13831055 -17.57391602 74.13831055 -18.27026367 73.11450195 C-18.97989258 72.10709961 -18.97989258 72.10709961 -19.70385742 71.0793457 C-21.67976127 67.74970842 -21.97110547 64.97626863 -22.02563477 61.18994141 C-22.04169769 60.17491043 -22.05776062 59.15987946 -22.0743103 58.11408997 C-22.11889592 53.46718081 -22.15983599 48.82041311 -22.18286133 44.17333984 C-22.19940303 41.72630288 -22.22666907 39.27931387 -22.26489258 36.83251953 C-22.31981242 33.29735337 -22.34156088 29.76331923 -22.35620117 26.2277832 C-22.37887054 25.14104813 -22.40153992 24.05431305 -22.42489624 22.93464661 C-22.4034843 15.19044687 -20.79527187 10.15235035 -15.28353882 4.62275696 C-10.34940951 0.29145431 -6.29411498 0.02248304 0 0 Z " fill="#EDEBE9" transform="translate(60.832763671875,65.822998046875)"/>
<path d="M0 0 C1.00550652 -0.0098568 1.00550652 -0.0098568 2.03132629 -0.01991272 C4.2491569 -0.03961663 6.46691976 -0.05130373 8.68481445 -0.0612793 C9.4443574 -0.06535482 10.20390034 -0.06943035 10.98645973 -0.07362938 C15.00919954 -0.09448093 19.03190536 -0.10878478 23.0546875 -0.11816406 C27.19616236 -0.12920746 31.33709681 -0.16358544 35.47838116 -0.20333576 C38.67414806 -0.22957018 41.86978775 -0.23786206 45.06565285 -0.24144554 C46.59138437 -0.24629642 48.11711078 -0.25786748 49.64273643 -0.27648354 C66.41486079 -0.46836782 66.41486079 -0.46836782 72.86405945 5.5891571 C76.99350187 10.1816888 78.60505663 14.51045718 78.63525391 20.60644531 C78.64478592 21.66782211 78.65431793 22.72919891 78.66413879 23.82273865 C78.66322739 24.95929398 78.66231598 26.0958493 78.66137695 27.2668457 C78.66566208 28.44412735 78.6699472 29.621409 78.67436218 30.83436584 C78.68009952 33.32153684 78.68061015 35.80872461 78.67626953 38.29589844 C78.67311021 42.09705275 78.69657524 45.89742823 78.72192383 49.69848633 C78.72419696 52.11710514 78.72490025 54.53572604 78.72387695 56.9543457 C78.7330867 58.0888768 78.74229645 59.2234079 78.75178528 60.39231873 C78.71199094 67.19335439 78.233097 71.96764017 73.52856445 77.22387695 C72.54823242 78.06692383 72.54823242 78.06692383 71.5480957 78.92700195 C70.90227539 79.4993457 70.25645508 80.07168945 69.59106445 80.66137695 C63.1560328 85.03404295 56.34114299 84.38177384 48.8762207 84.2746582 C46.38924409 84.27059343 43.90226314 84.26870876 41.4152832 84.26879883 C37.51310428 84.26070404 33.61294634 84.23953742 29.71118164 84.18066406 C25.9317867 84.1292486 22.15586391 84.13497599 18.3762207 84.1496582 C16.64447601 84.10338036 16.64447601 84.10338036 14.87774658 84.0561676 C6.85744102 84.15003005 2.98872141 86.23603966 -2.61651611 91.95750427 C-3.28406921 92.68993851 -3.95162231 93.42237274 -4.6394043 94.17700195 C-5.63501026 95.16063609 -6.63402046 96.14086409 -7.6394043 97.11450195 C-8.2994043 97.79512695 -8.9594043 98.47575195 -9.6394043 99.17700195 C-11.6394043 101.17700195 -11.6394043 101.17700195 -14.5769043 101.48950195 C-17.6394043 101.17700195 -17.6394043 101.17700195 -19.30555725 100.14028931 C-21.36199261 97.11342535 -21.06490894 93.98700581 -21.04345703 90.4519043 C-21.05375191 89.27324295 -21.05375191 89.27324295 -21.06425476 88.07077026 C-21.0825825 85.46797698 -21.0786744 82.86578357 -21.07299805 80.26293945 C-21.07755943 78.45032556 -21.08286488 76.6377134 -21.08888245 74.82510376 C-21.09782709 71.02029412 -21.09537795 67.21569416 -21.08544922 63.41088867 C-21.07400161 58.55203832 -21.09409907 53.69391928 -21.12336636 48.83516502 C-21.14178811 45.08773241 -21.14142328 41.34047271 -21.13572884 37.59300613 C-21.13557612 35.8029745 -21.14157953 34.01293076 -21.15402031 32.22294235 C-21.27066271 12.67475388 -21.27066271 12.67475388 -14.82299805 5.02075195 C-14.24678711 4.57731445 -13.67057617 4.13387695 -13.0769043 3.67700195 C-12.49811523 3.21293945 -11.91932617 2.74887695 -11.32299805 2.27075195 C-7.65165237 -0.114345 -4.25327104 0.03452488 0 0 Z " fill="#EDEBEA" transform="translate(72.639404296875,185.822998046875)"/>
<path d="M0 0 C8.50598354 6.56954547 14.84021063 15.93594002 17.03125 26.55078125 C19.38905966 45.05797213 12.53305069 60.9830828 1.44140625 75.4765625 C-2.36531193 80.32844651 -6.39925275 84.96220226 -10.578125 89.49609375 C-13.1842482 92.33430213 -15.68327931 95.25729089 -18.17578125 98.1953125 C-19.68359375 99.7890625 -19.68359375 99.7890625 -22.68359375 101.7890625 C-25.38779512 101.8074272 -27.03705211 101.31807079 -29.14208984 99.59570312 C-30.7874706 97.96351919 -32.33495499 96.27447917 -33.87109375 94.5390625 C-34.43916748 93.91008057 -35.00724121 93.28109863 -35.5925293 92.63305664 C-52.51736626 73.66536216 -65.95203162 54.14601791 -64.86279297 27.9609375 C-63.90299712 16.32831641 -56.48377252 7.82319199 -47.98046875 0.546875 C-33.75655732 -10.3387715 -14.74986942 -9.61227446 0 0 Z " fill="#EDEAE8" transform="translate(261.68359375,187.2109375)"/>
<path d="M0 0 C21.17299479 -0.04010881 21.17299479 -0.04010881 30.16601562 -0.04882812 C36.31356667 -0.05481671 42.46110289 -0.0619174 48.60864258 -0.07543945 C53.5623141 -0.08626787 58.51596974 -0.09227674 63.46965218 -0.09487724 C65.36397616 -0.09673157 67.25829924 -0.10035234 69.1526165 -0.10573006 C71.79634386 -0.11293989 74.44000471 -0.11399097 77.08374023 -0.11352539 C77.87495773 -0.11712067 78.66617523 -0.12071594 79.48136902 -0.12442017 C84.88594784 -0.11405216 84.88594784 -0.11405216 86 1 C86.09861598 2.62127423 86.12798767 4.24682368 86.12939453 5.87109375 C86.13254669 6.90886963 86.13569885 7.94664551 86.13894653 9.01586914 C86.13591019 10.70957642 86.13591019 10.70957642 86.1328125 12.4375 C86.13376923 13.58790771 86.13472595 14.73831543 86.13571167 15.92358398 C86.13639369 18.36149144 86.1345379 20.7994007 86.13037109 23.23730469 C86.12502317 26.98376518 86.13031539 30.73010577 86.13671875 34.4765625 C86.13605797 36.83854193 86.13477682 39.20052129 86.1328125 41.5625 C86.13483673 42.69163818 86.13686096 43.82077637 86.13894653 44.98413086 C86.13421829 46.54079468 86.13421829 46.54079468 86.12939453 48.12890625 C86.12859894 49.04744385 86.12780334 49.96598145 86.12698364 50.91235352 C86 53 86 53 85 54 C82.35261911 54.09511266 79.73140999 54.12555635 77.08374023 54.11352539 C76.25454071 54.11367142 75.42534119 54.11381744 74.5710144 54.1139679 C71.81684802 54.11326851 69.06274839 54.10547493 66.30859375 54.09765625 C64.40430234 54.09579216 62.50001045 54.09436822 60.59571838 54.09336853 C55.57332037 54.08954263 50.55095108 54.07971173 45.52856445 54.06866455 C39.50804488 54.05665775 33.48751572 54.05204853 27.46698761 54.04621124 C18.31130507 54.03650001 9.15568561 54.01734396 0 54 C0 36.18 0 18.36 0 0 Z " fill="#D73540" transform="translate(195,91)"/>
<path d="M0 0 C0.93767212 -0.00315216 1.87534424 -0.00630432 2.84143066 -0.009552 C3.86119995 -0.00752777 4.88096924 -0.00550354 5.93164062 -0.00341797 C7.49078186 -0.00485306 7.49078186 -0.00485306 9.0814209 -0.00631714 C11.28393616 -0.0069991 13.48645342 -0.00514374 15.68896484 -0.00097656 C19.07328782 0.00437146 22.45747806 -0.00092105 25.84179688 -0.00732422 C27.97591175 -0.00666344 30.11002655 -0.00538228 32.24414062 -0.00341797 C33.26390991 -0.0054422 34.2836792 -0.00746643 35.33435059 -0.009552 C36.74085876 -0.00482376 36.74085876 -0.00482376 38.17578125 0 C39.42035095 0.00119339 39.42035095 0.00119339 40.69006348 0.00241089 C42.58789062 0.12939453 42.58789062 0.12939453 43.58789062 1.12939453 C43.68892317 3.92933051 43.7275915 6.70408097 43.72070312 9.50439453 C43.72165985 10.34405762 43.72261658 11.1837207 43.72360229 12.04882812 C43.7242841 13.82763748 43.72242979 15.6064493 43.71826172 17.38525391 C43.71291345 20.11773229 43.71820668 22.85004629 43.72460938 25.58251953 C43.72394859 27.30647823 43.72266743 29.03043683 43.72070312 30.75439453 C43.72272736 31.5772998 43.72475159 32.40020508 43.72683716 33.24804688 C43.70284117 39.01444399 43.70284117 39.01444399 42.58789062 40.12939453 C41.22830208 40.24284158 39.86298052 40.28889582 38.4987793 40.30639648 C37.63085251 40.31923172 36.76292572 40.33206696 35.86869812 40.34529114 C34.45159294 40.35637154 34.45159294 40.35637154 33.00585938 40.36767578 C32.04013504 40.37574753 31.07441071 40.38381927 30.079422 40.39213562 C28.03074957 40.40599469 25.98205387 40.41670865 23.93334961 40.42456055 C20.79887088 40.44176565 17.66544866 40.48563457 14.53125 40.52978516 C12.54362757 40.53991224 10.55599615 40.54842829 8.56835938 40.55517578 C7.16036324 40.58143791 7.16036324 40.58143791 5.72392273 40.60823059 C1.87546855 40.59539821 -0.65188383 40.57603955 -4.00927734 38.60351562 C-5.97248735 35.14107737 -5.92924053 31.98807974 -5.83789062 28.11767578 C-5.83460251 27.34884567 -5.83131439 26.58001556 -5.82792664 25.78788757 C-5.8175268 24.16815688 -5.79761226 22.54846286 -5.76879883 20.92895508 C-5.72457968 18.44022329 -5.70734177 15.95245556 -5.6953125 13.46337891 C-5.68189421 11.88979716 -5.66697284 10.31622736 -5.65039062 8.74267578 C-5.64300369 7.99480301 -5.63561676 7.24693024 -5.62800598 6.47639465 C-5.50723611 0.00528076 -5.50723611 0.00528076 0 0 Z " fill="#D73540" transform="translate(82.412109375,207.87060546875)"/>
<path d="M0 0 C5.70925185 3.50771378 9.13119327 6.29430435 10.8046875 12.98828125 C11.30326402 18.47262294 10.51347523 22.18236753 7.8046875 26.98828125 C3.54682004 31.46759808 -0.12393983 34.09080558 -6.4453125 34.30078125 C-11.48518438 34.23522194 -14.12457445 32.9415618 -18.1953125 29.98828125 C-23.06632511 24.60453047 -23.54954463 21.17259531 -23.47265625 14.0390625 C-23.06457237 9.55013981 -21.99696088 7.52720552 -19.1953125 3.98828125 C-13.49879234 -0.42942826 -6.96019351 -3.20763367 0 0 Z " fill="#D63641" transform="translate(244.1953125,205.01171875)"/>
<path d="M0 0 C0.495 0.99 0.495 0.99 1 2 C2.32 2.66 3.64 3.32 5 4 C4.67 16.21 4.34 28.42 4 41 C4.99 41.495 4.99 41.495 6 42 C5.34 42.66 4.68 43.32 4 44 C3.67 43.67 3.34 43.34 3 43 C2.505 43.99 2.505 43.99 2 45 C-12.85 44.67 -27.7 44.34 -43 44 C-43 43.67 -43 43.34 -43 43 C-28.48 42.67 -13.96 42.34 1 42 C1 29.46 1 16.92 1 4 C-14.51 4 -30.02 4 -46 4 C-46.04125 9.671875 -46.0825 15.34375 -46.125 21.1875 C-46.14320801 22.96922607 -46.16141602 24.75095215 -46.18017578 26.58666992 C-46.18602073 28.00959981 -46.19111629 29.43253305 -46.1953125 30.85546875 C-46.20554443 31.58560181 -46.21577637 32.31573486 -46.22631836 33.06799316 C-46.22771276 37.16405808 -45.82847262 40.31458374 -44 44 C-45.96411133 42.99023438 -45.96411133 42.99023438 -48 41 C-48.4144449 38.25866938 -48.58129038 35.90086212 -48.57421875 33.15625 C-48.58838333 32.39074829 -48.60254791 31.62524658 -48.61714172 30.83654785 C-48.65906917 28.39088934 -48.67428245 25.94596739 -48.6875 23.5 C-48.71657452 21.05437659 -48.75115353 18.60893931 -48.78999329 16.16345215 C-48.81243918 14.6421346 -48.82828385 13.12070224 -48.83683777 11.59924316 C-48.86872434 8.46783072 -49.00216533 5.993504 -50 3 C-39.11176956 0.73320476 -28.73419969 0.94326287 -17.6875 1.375 C-15.96422989 1.43339944 -14.24092213 1.49069853 -12.51757812 1.546875 C-8.3445103 1.68526082 -4.17223211 1.83843656 0 2 C0 1.34 0 0.68 0 0 Z " fill="#FDEEEB" transform="translate(124,205)"/>
<path d="M0 0 C2 1.6875 2 1.6875 3 4 C3.1875 7.25 3.1875 7.25 3 10 C2.67 10 2.34 10 2 10 C2 8.35 2 6.7 2 5 C1.34 5 0.68 5 0 5 C-0.33 5.66 -0.66 6.32 -1 7 C-1 6.34 -1 5.68 -1 5 C-1.66 5 -2.32 5 -3 5 C-3.33 4.34 -3.66 3.68 -4 3 C-7.04386724 2.91773332 -9.07175348 3.02391783 -12 4 C-11.98839844 4.62648438 -11.97679687 5.25296875 -11.96484375 5.8984375 C-11.95582031 6.71570312 -11.94679687 7.53296875 -11.9375 8.375 C-11.92589844 9.18710937 -11.91429687 9.99921875 -11.90234375 10.8359375 C-12 13 -12 13 -13 15 C-15.28515625 15.6328125 -15.28515625 15.6328125 -18.0625 16.125 C-18.98160156 16.29257813 -19.90070313 16.46015625 -20.84765625 16.6328125 C-21.55792969 16.75398438 -22.26820313 16.87515625 -23 17 C-23 17.99 -23 18.98 -23 20 C-23.99 20 -24.98 20 -26 20 C-26.33 20.99 -26.66 21.98 -27 23 C-28.32 23 -29.64 23 -31 23 C-31 23.99 -31 24.98 -31 26 C-31.99 26 -32.98 26 -34 26 C-32.35178761 20.75568784 -29.47669873 17.40569387 -24.6875 14.6875 C-21.0297958 13.75180823 -17.77206749 13.87213331 -14 14 C-14.05220703 12.86111328 -14.05220703 12.86111328 -14.10546875 11.69921875 C-14.13253906 10.70535156 -14.15960938 9.71148437 -14.1875 8.6875 C-14.22230469 7.70136719 -14.25710937 6.71523438 -14.29296875 5.69921875 C-14 3 -14 3 -12.67578125 1.20703125 C-8.64442758 -1.69667105 -4.57234832 -1.21929289 0 0 Z " fill="#F2E3DF" transform="translate(215,51)"/>
<path d="M0 0 C0.99 0.33 1.98 0.66 3 1 C1.8125 3.4375 1.8125 3.4375 0 6 C-0.804375 6.0825 -1.60875 6.165 -2.4375 6.25 C-5.40259833 6.80999951 -5.40259833 6.80999951 -7.12207031 10.38452148 C-10.29435551 18.00030146 -9.60551614 26.48905337 -9.609375 34.59765625 C-9.62437324 36.40084812 -9.64110381 38.20402633 -9.65948486 40.00718689 C-9.70298625 44.72696602 -9.72311911 49.44655987 -9.73822021 54.16650391 C-9.75785364 58.99327471 -9.79981648 63.81984724 -9.83984375 68.64648438 C-9.9149592 78.09759483 -9.96536341 87.54866051 -10 97 C-10.33 97 -10.66 97 -11 97 C-11.09290533 86.46404038 -11.16386899 75.92817911 -11.20724869 65.39189243 C-11.2280746 60.49882544 -11.25630051 55.60603984 -11.30175781 50.71313477 C-11.34539436 45.98633517 -11.36917464 41.25980531 -11.37950897 36.53281975 C-11.38686849 34.73438207 -11.40123967 32.93595824 -11.42292023 31.13763618 C-11.64785411 11.69736955 -11.64785411 11.69736955 -5.18359375 3.7734375 C-4.60738281 3.31195313 -4.03117187 2.85046875 -3.4375 2.375 C-2.85871094 1.88773438 -2.27992187 1.40046875 -1.68359375 0.8984375 C-1.12800781 0.60195312 -0.57242188 0.30546875 0 0 Z " fill="#FDE0DF" transform="translate(63,187)"/>
<path d="M0 0 C0.66 0.33 1.32 0.66 2 1 C-0.625 4.875 -0.625 4.875 -4 6 C-4.33 6.66 -4.66 7.32 -5 8 C-5.66 8 -6.32 8 -7 8 C-8.85666971 15.07012116 -9.26717638 21.52572758 -9.1953125 28.81640625 C-9.1924826 29.91347397 -9.18965271 31.01054169 -9.18673706 32.14085388 C-9.17561997 35.61485098 -9.15053112 39.08858197 -9.125 42.5625 C-9.11495925 44.9303348 -9.10583532 47.29817367 -9.09765625 49.66601562 C-9.07570844 55.44409988 -9.04231609 61.22203092 -9 67 C-8.34 67 -7.68 67 -7 67 C-6.34 68.32 -5.68 69.64 -5 71 C-5.99 71.99 -5.99 71.99 -7 73 C-11.06982777 66.25117662 -11.60251468 60.9223684 -11.56640625 53.125 C-11.57260483 52.00109863 -11.57880341 50.87719727 -11.58518982 49.71923828 C-11.59226631 47.35254783 -11.58915217 44.98580738 -11.57641602 42.61914062 C-11.56254146 39.01078246 -11.59666878 35.405015 -11.63476562 31.796875 C-11.63571685 29.4895827 -11.63385782 27.18228718 -11.62890625 24.875 C-11.64216446 23.8039502 -11.65542267 22.73290039 -11.66908264 21.62939453 C-11.58514187 14.83373344 -10.48108568 10.2209983 -6 5 C-4.07717441 3.15232315 -2.14651251 1.59740466 0 0 Z " fill="#FFEFEE" transform="translate(50,67)"/>
<path d="M0 0 C3.09130286 2.28559094 5.62539012 4.77983085 8.203125 7.62890625 C7.873125 8.28890625 7.543125 8.94890625 7.203125 9.62890625 C6.6153125 8.97921875 6.6153125 8.97921875 6.015625 8.31640625 C4.19269049 6.49032286 4.19269049 6.49032286 1.578125 5.12890625 C-0.796875 3.62890625 -0.796875 3.62890625 -1.796875 0.62890625 C-4.271875 0.13390625 -4.271875 0.13390625 -6.796875 -0.37109375 C-6.796875 -1.03109375 -6.796875 -1.69109375 -6.796875 -2.37109375 C-10.55166632 -3.2240415 -14.12698994 -3.55489082 -17.97265625 -3.6875 C-19.12958984 -3.72939453 -20.28652344 -3.77128906 -21.47851562 -3.81445312 C-22.67669922 -3.85376953 -23.87488281 -3.89308594 -25.109375 -3.93359375 C-26.32689453 -3.97677734 -27.54441406 -4.01996094 -28.79882812 -4.06445312 C-31.7980697 -4.17030871 -34.79739091 -4.27239101 -37.796875 -4.37109375 C-26.72427367 -11.75282797 -10.25767019 -6.60130711 0 0 Z " fill="#F5DEDB" transform="translate(261.796875,187.37109375)"/>
<path d="M0 0 C5.34349805 4.91024145 8.09221837 8.92316124 8.40405273 16.25170898 C8.43050512 18.33302577 8.43934404 20.41461681 8.43359375 22.49609375 C8.4388356 23.60300064 8.44407745 24.70990753 8.44947815 25.85035706 C8.45588798 28.18611819 8.45457486 30.52191166 8.44604492 32.85766602 C8.43753706 36.42197422 8.46630978 39.98467814 8.49804688 43.54882812 C8.49965914 45.82291619 8.49908087 48.09700708 8.49609375 50.37109375 C8.51294472 51.96201088 8.51294472 51.96201088 8.53013611 53.58506775 C8.47057742 59.94135176 7.70213878 63.78579114 4 69 C3.67 68.34 3.34 67.68 3 67 C3.64616658 65.65661213 4.31572732 64.32438405 5 63 C6.77798676 54.59797388 6.18614574 45.48248824 6.18530273 36.93188477 C6.18749829 34.43944435 6.20573712 31.94744117 6.22460938 29.45507812 C6.36829464 18.06548396 6.36829464 18.06548396 4 7 C3.01 6.34 2.02 5.68 1 5 C0.3125 2.375 0.3125 2.375 0 0 Z " fill="#FEE8E6" transform="translate(143,70)"/>
<path d="M0 0 C0.66 0 1.32 0 2 0 C2.53625 0.61875 3.0725 1.2375 3.625 1.875 C9.15657097 6.82430034 17.35978592 6.32570051 24.40625 6.4140625 C25.3715564 6.43342865 26.33686279 6.4527948 27.3314209 6.4727478 C30.38752657 6.53210018 33.44367082 6.57875038 36.5 6.625 C38.58334895 6.66322064 40.66668278 6.7022747 42.75 6.7421875 C47.8332093 6.83776489 52.91649247 6.92195813 58 7 C57.67 7.66 57.34 8.32 57 9 C50.31009853 8.95820832 43.62102075 8.88576251 36.93164062 8.79248047 C34.65827884 8.7643384 32.38482045 8.74309039 30.11132812 8.72900391 C26.8341347 8.70748118 23.55809469 8.66078115 20.28125 8.609375 C19.27259888 8.60814636 18.26394775 8.60691772 17.22473145 8.60565186 C11.10121274 8.47992465 6.02844999 7.72268594 1 4 C0.34 3.01 -0.32 2.02 -1 1 C-0.67 0.67 -0.34 0.34 0 0 Z " fill="#FDDFE1" transform="translate(45,139)"/>
<path d="M0 0 C0.33 0 0.66 0 1 0 C1.24798276 2.95786664 1.47411854 5.91461298 1.6875 8.875 C1.76033203 9.71675781 1.83316406 10.55851563 1.90820312 11.42578125 C1.96298828 12.23144531 2.01777344 13.03710938 2.07421875 13.8671875 C2.13182373 14.61081543 2.18942871 15.35444336 2.2487793 16.12060547 C2.16668213 16.74080566 2.08458496 17.36100586 2 18 C-1.4352048 20.29013653 -2.985331 20.17842973 -7 20 C-7.33 19.34 -7.66 18.68 -8 18 C-7.34 18 -6.68 18 -6 18 C-6 17.34 -6 16.68 -6 16 C-4.35 16.33 -2.7 16.66 -1 17 C-1.09539062 16.35933594 -1.19078125 15.71867188 -1.2890625 15.05859375 C-2.01412633 9.40140965 -1.9805089 5.35902409 0 0 Z " fill="#E8E6DE" transform="translate(130,148)"/>
<path d="M0 0 C1.984375 1.14453125 1.984375 1.14453125 4 3 C4.390625 5.69921875 4.390625 5.69921875 4.25 8.6875 C4.21390625 9.68136719 4.1778125 10.67523438 4.140625 11.69921875 C4.09421875 12.45847656 4.0478125 13.21773437 4 14 C5.546875 13.938125 5.546875 13.938125 7.125 13.875 C10.86829627 13.99575149 13.53734547 14.64872018 17 16 C16.34 16.66 15.68 17.32 15 18 C12.3984375 17.7578125 12.3984375 17.7578125 9.375 17.125 C8.37210937 16.92132813 7.36921875 16.71765625 6.3359375 16.5078125 C5.56507813 16.34023437 4.79421875 16.17265625 4 16 C3.71125 14.96875 3.4225 13.9375 3.125 12.875 C1.55717198 6.40105646 1.55717198 6.40105646 -2 1 C-1.34 0.67 -0.68 0.34 0 0 Z " fill="#FDE6E6" transform="translate(271,51)"/>
<path d="M0 0 C3.96875 3.59375 3.96875 3.59375 4.25 7.25 C4.1675 8.1575 4.085 9.065 4 10 C3.34 10 2.68 10 2 10 C2.09539062 10.77085937 2.19078125 11.54171875 2.2890625 12.3359375 C2.39992187 13.33882812 2.51078125 14.34171875 2.625 15.375 C2.74101562 16.37273437 2.85703125 17.37046875 2.9765625 18.3984375 C2.98429688 19.25695312 2.99203125 20.11546875 3 21 C2.34 21.66 1.68 22.32 1 23 C-0.23402862 18.22907044 -0.11265112 13.57530554 -0.0625 8.6875 C-0.05798828 7.85154297 -0.05347656 7.01558594 -0.04882812 6.15429688 C-0.03710548 4.10283351 -0.01917203 2.05140727 0 0 Z " fill="#F9E1E3" transform="translate(197,213)"/>
<path d="M0 0 C8.21466678 0.42126496 14.67216442 6.15656742 20 12 C19.67 12.66 19.34 13.32 19 14 C18.608125 13.566875 18.21625 13.13375 17.8125 12.6875 C15.98956549 10.86141661 15.98956549 10.86141661 13.375 9.5 C11 8 11 8 10 5 C8.35 4.67 6.7 4.34 5 4 C5 3.34 5 2.68 5 2 C3.35 1.67 1.7 1.34 0 1 C0 0.67 0 0.34 0 0 Z " fill="#FBE6E3" transform="translate(250,183)"/>
<path d="M0 0 C2.64 0 5.28 0 8 0 C7.875 2.3125 7.875 2.3125 7 5 C4.0625 6.875 4.0625 6.875 1 8 C0.34 7.67 -0.32 7.34 -1 7 C-0.34 6.01 0.32 5.02 1 4 C0.34 4 -0.32 4 -1 4 C-0.67 2.68 -0.34 1.36 0 0 Z " fill="#F5E4E4" transform="translate(281,152)"/>
<path d="M0 0 C0.99 0.33 1.98 0.66 3 1 C2.67 13.21 2.34 25.42 2 38 C1.67 38 1.34 38 1 38 C0.67 25.46 0.34 12.92 0 0 Z " fill="#FDD0CF" transform="translate(125,207)"/>
<path d="M0 0 C1.32 0.33 2.64 0.66 4 1 C0.04 5.62 -3.92 10.24 -8 15 C-8.66 14.67 -9.32 14.34 -10 14 C-8.6618467 9.9855401 -6.23686108 8.64233558 -3 6 C-2.34 5.01 -1.68 4.02 -1 3 C-0.34 3 0.32 3 1 3 C0.67 2.01 0.34 1.02 0 0 Z " fill="#FCE8E2" transform="translate(253,269)"/>
<path d="M0 0 C0.33 0 0.66 0 1 0 C1 6.27 1 12.54 1 19 C1.66 19 2.32 19 3 19 C3.66 20.32 4.32 21.64 5 23 C4.34 23.66 3.68 24.32 3 25 C-2.54667373 17.10019195 -0.95531013 9.1377491 0 0 Z " fill="#F7E3E3" transform="translate(40,115)"/>
<path d="M0 0 C2 0 2 0 4.375 2.25 C5.24125 3.1575 6.1075 4.065 7 5 C7.763125 5.721875 8.52625 6.44375 9.3125 7.1875 C11 9 11 9 11 11 C11.66 11 12.32 11 13 11 C13.33 12.32 13.66 13.64 14 15 C3.75285171 6.42585551 3.75285171 6.42585551 0 2 C0 1.34 0 0.68 0 0 Z " fill="#FCEAE7" transform="translate(103,146)"/>
<path d="M0 0 C0.66 0.33 1.32 0.66 2 1 C-0.625 4.875 -0.625 4.875 -4 6 C-4.33 6.66 -4.66 7.32 -5 8 C-5.66 8 -6.32 8 -7 8 C-7.66 10.97 -8.32 13.94 -9 17 C-9.66 17 -10.32 17 -11 17 C-10.37746764 10.46341022 -7.71743626 6.29388859 -2.75 2.125 C-1.38875 1.073125 -1.38875 1.073125 0 0 Z " fill="#FCE4E1" transform="translate(50,67)"/>
<path d="M0 0 C0.66 0.33 1.32 0.66 2 1 C1.67 1.66 1.34 2.32 1 3 C0.79907217 4.49579604 0.63663934 5.99696724 0.5 7.5 C0.11111111 11.77777778 0.11111111 11.77777778 -1 14 C-3.97 14 -6.94 14 -10 14 C-10 13.67 -10 13.34 -10 13 C-7.36 13 -4.72 13 -2 13 C-2.02320313 12.22914062 -2.04640625 11.45828125 -2.0703125 10.6640625 C-2.08835938 9.66117188 -2.10640625 8.65828125 -2.125 7.625 C-2.14820313 6.62726562 -2.17140625 5.62953125 -2.1953125 4.6015625 C-2 2 -2 2 0 0 Z " fill="#FDD9DA" transform="translate(203,52)"/>
<path d="M0 0 C0.66 0.33 1.32 0.66 2 1 C2 2.32 2 3.64 2 5 C-0.25 6.875 -0.25 6.875 -3 8 C-5.3125 7.1875 -5.3125 7.1875 -7 6 C-5.6100869 3.22017379 -3.81341647 3.12536659 -1 2 C-0.67 1.34 -0.34 0.68 0 0 Z " fill="#F1E1E2" transform="translate(141,261)"/>
<path d="M0 0 C0 0.99 0 1.98 0 3 C-0.78375 3.639375 -1.5675 4.27875 -2.375 4.9375 C-6.55247412 8.74811379 -6.43152121 14.68005668 -7 20 C-7.33 20 -7.66 20 -8 20 C-8.50408218 13.04086552 -8.18394918 8.69481972 -4 3 C-1.75 1.0625 -1.75 1.0625 0 0 Z " fill="#B8313D" transform="translate(229,206)"/>
<path d="M0 0 C4.54805635 -0.17835515 7.8794254 0.00214565 12 2 C8.8250906 3.9078584 6.89414789 4.1609041 3.25 3.625 C2.45078125 3.51414063 1.6515625 3.40328125 0.828125 3.2890625 C0.22484375 3.19367188 -0.3784375 3.09828125 -1 3 C-0.67 2.01 -0.34 1.02 0 0 Z " fill="#E1EFE6" transform="translate(243,183)"/>
<path d="M0 0 C4.63270954 4.25708444 7.82867098 7.91607766 8.1875 14.375 C8.125625 15.24125 8.06375 16.1075 8 17 C7.34 16.67 6.68 16.34 6 16 C5.39923744 13.72600246 5.0436846 11.44869424 4.66015625 9.12890625 C4.13111321 6.63209975 4.13111321 6.63209975 1 5 C0.3125 2.375 0.3125 2.375 0 0 Z " fill="#FCDFDF" transform="translate(143,70)"/>
<path d="M0 0 C6.93 0 13.86 0 21 0 C21 0.33 21 0.66 21 1 C15.72 1 10.44 1 5 1 C5 1.66 5 2.32 5 3 C4.01 3 3.02 3 2 3 C2 2.34 2 1.68 2 1 C1.34 0.67 0.68 0.34 0 0 Z " fill="#E2EBDF" transform="translate(197,147)"/>
<path d="M0 0 C5.70435685 4.36929461 5.70435685 4.36929461 6.9375 7 C7.01439033 9.46049068 6.59550842 11.61796631 6 14 C4 11 4 11 3 7.375 C2.67 6.26125 2.34 5.1475 2 4 C1.34 3.67 0.68 3.34 0 3 C0 2.01 0 1.02 0 0 Z " fill="#F4E2E0" transform="translate(288,68)"/>
<path d="M0 0 C0.66 0 1.32 0 2 0 C3.0625 2.375 3.0625 2.375 4 5 C3.67 5.66 3.34 6.32 3 7 C2.34 7 1.68 7 1 7 C1 8.98 1 10.96 1 13 C0.01 13.495 0.01 13.495 -1 14 C-0.67 9.38 -0.34 4.76 0 0 Z " fill="#E4EEE4" transform="translate(259,55)"/>
<path d="M0 0 C1.65 0 3.3 0 5 0 C5 0.66 5 1.32 5 2 C5.66 2 6.32 2 7 2 C8.60355101 5.50776784 9.22036864 8.14354879 9 12 C7.81668247 10.2250237 6.67311388 8.42052006 5.625 6.5625 C3.99235496 3.98794436 2.22412166 2.07073396 0 0 Z " fill="#F7DDDC" transform="translate(246,206)"/>
<path d="M0 0 C1.32 0.33 2.64 0.66 4 1 C3.401875 1.7425 2.80375 2.485 2.1875 3.25 C0.41826778 5.47417764 -1.30860915 7.71662235 -3 10 C-2.25 3.375 -2.25 3.375 0 0 Z " fill="#E2ECE2" transform="translate(58,193)"/>
<path d="M0 0 C-1.15897264 3.47691793 -1.8640843 4.22015595 -5 6 C-8.125 6.375 -8.125 6.375 -11 6 C-11.66 5.01 -12.32 4.02 -13 3 C-10.69 3.66 -8.38 4.32 -6 5 C-6 4.34 -6 3.68 -6 3 C-2.53846154 0 -2.53846154 0 0 0 Z " fill="#FCE0DF" transform="translate(66,281)"/>
<path d="M0 0 C1.62580966 0.11398665 3.25067157 0.24155659 4.875 0.375 C5.77992188 0.44460937 6.68484375 0.51421875 7.6171875 0.5859375 C10 1 10 1 12 3 C9.64710301 4.1764485 8.58181049 4.03475851 6 3.75 C5.29875 3.68296875 4.5975 3.6159375 3.875 3.546875 C2 3 2 3 0 0 Z " fill="#F3D1D0" transform="translate(276,65)"/>
<path d="M0 0 C0.66 0.33 1.32 0.66 2 1 C-0.97 5.95 -0.97 5.95 -4 11 C-5 7 -5 7 -4.00390625 5.078125 C-3.52824219 4.47484375 -3.05257813 3.8715625 -2.5625 3.25 C-2.08941406 2.63640625 -1.61632812 2.0228125 -1.12890625 1.390625 C-0.75636719 0.93171875 -0.38382812 0.4728125 0 0 Z " fill="#FADCDB" transform="translate(271,246)"/>
<path d="M0 0 C1.98 0.66 3.96 1.32 6 2 C6 2.99 6 3.98 6 5 C3.69 4.67 1.38 4.34 -1 4 C-0.67 2.68 -0.34 1.36 0 0 Z " fill="#E2EBE2" transform="translate(260,191)"/>
<path d="M0 0 C0.66 0 1.32 0 2 0 C2.66 2.31 3.32 4.62 4 7 C2.35 7.33 0.7 7.66 -1 8 C-0.34 6.68 0.32 5.36 1 4 C0.34 4 -0.32 4 -1 4 C-0.67 2.68 -0.34 1.36 0 0 Z " fill="#EADDDB" transform="translate(281,152)"/>
<path d="M0 0 C0.66 0.33 1.32 0.66 2 1 C2 1.99 2 2.98 2 4 C1.34 3.67 0.68 3.34 0 3 C-0.33 4.65 -0.66 6.3 -1 8 C-1.99 8 -2.98 8 -4 8 C-2.87548273 5.0280615 -1.77706209 2.66559313 0 0 Z " fill="#FADEE2" transform="translate(185,69)"/>
<path d="M0 0 C1.32 0 2.64 0 4 0 C4 0.99 4 1.98 4 3 C4.99 3.33 5.98 3.66 7 4 C6.01 4.66 5.02 5.32 4 6 C2.62437146 4.71034824 1.29233607 3.37310707 0 2 C0 1.34 0 0.68 0 0 Z " fill="#E3EEE5" transform="translate(284,68)"/>
<path d="M0 0 C0.33 0.66 0.66 1.32 1 2 C1.66 2 2.32 2 3 2 C3.33 3.98 3.66 5.96 4 8 C-0.875 3.25 -0.875 3.25 -2 1 C-1.34 0.67 -0.68 0.34 0 0 Z " fill="#FADEDF" transform="translate(220,268)"/>
<path d="M0 0 C2.2477975 2.05233685 3.0022242 3.00667261 4 6 C2.68 6.33 1.36 6.66 0 7 C-1.125 2.25 -1.125 2.25 0 0 Z " fill="#F6EFEC" transform="translate(220,227)"/>
<path d="M0 0 C0.99 0 1.98 0 3 0 C3.33 2.31 3.66 4.62 4 7 C2.66666667 7 1.33333333 7 0 7 C0 4.69 0 2.38 0 0 Z " fill="#EFEDF6" transform="translate(290,140)"/>
<path d="M0 0 C-0.3125 1.875 -0.3125 1.875 -1 4 C-1.99 4.66 -2.98 5.32 -4 6 C-4.33 4.68 -4.66 3.36 -5 2 C-2 0 -2 0 0 0 Z " fill="#F9D7D6" transform="translate(248,278)"/>
<path d="M0 0 C0.99 0.33 1.98 0.66 3 1 C2.67 4.96 2.34 8.92 2 13 C1.67 13 1.34 13 1 13 C0.67 8.71 0.34 4.42 0 0 Z " fill="#FCD9DD" transform="translate(125,207)"/>
<path d="M0 0 C0.99 0.33 1.98 0.66 3 1 C3.33 3.31 3.66 5.62 4 8 C2 6.25 2 6.25 0 4 C0 2.68 0 1.36 0 0 Z " fill="#F6E8F1" transform="translate(254,204)"/>
<path d="M0 0 C2.125 0.9375 2.125 0.9375 4 2 C2.68 2.99 1.36 3.98 0 5 C-1.32 4.34 -2.64 3.68 -4 3 C-3.34 3 -2.68 3 -2 3 C-2 2.34 -2 1.68 -2 1 C-1.34 0.67 -0.68 0.34 0 0 Z " fill="#F9E7E8" transform="translate(138,67)"/>
<path d="" fill="#EFE7E5" transform="translate(0,0)"/>
<path d="" fill="#EEF2E3" transform="translate(0,0)"/>
</svg>
